<?xml version="1.0" encoding="UTF-8"?>
<svg version="1.1" viewBox="0 0 1599 1600" width="1280" height="1280" xmlns="http://www.w3.org/2000/svg">
<path transform="translate(0)" d="m0 0h1599v1600h-1599z" fill="#DFECF4"/>
<path transform="translate(951,110)" d="m0 0h39l24 3 24 5 24 7 25 10 23 11 22 13 16 11 13 10 13 11 10 9 21 21 9 11 14 18 14 22 10 19 8 24 4 19 3 28 1 104 3 18 4 15 9 21 10 17 14 19 13 15 9 10 7 8 10 11 9 11 13 16 13 18 14 24 12 25 9 24 8 26 6 26 5 30 3 29 1 22v24l-2 34-4 31-5 23-6 20-8 21-11 23-13 22-11 16-10 13-11 13-11 12-13 13-11 9-6 5h-1l-1-19-6-12-8-8-10-6-2 5-6 7-11 7-12 5-14 4-13 2h-36l-21-4-16-6-11-7-8-8-4-9 1-36 3-6 5-6 10-7 13-6 14-4 20-3h25l20 3 16 5 16 8 7 6 3 4v3h2l1-5 5-12v-10h-2l-5-6-14-10-16-9-16-8-20-9-27-10-25-8 5-6 10-8 17-14 15-12-2-22-3-18v-4l10 2 30 11 13 5 8 4 19 9 10 6 14 9 10 9 4 6 4-12 4-23v-35l-5-30v-9l5-3 10-24v-7l-6-7-14-9-16-8-19-8-18-6-16-4-7-1h-12l-5 3-5 12-5 13 1 9-5 4h-2v2l-11 8-6 5h-2v2l-11 9-9 10-9 12-8 12-2 4h-1l-13-256-4-78v-21l-35 15-16-1-20-3-18-2-4-1 1-9 5-23 15-60 1-5v-9l-3-7-7-8-13-12-13-10-7-5-17-8-11-3h-17l-18 4-20 7-25 11-15 8-6 5-13 24-7 12-2-1-9-22-7-12-10-8-15-9-19-9-24-8-8-1h-17l-16 4-19 9-19 12-16 11-4 5-3 9v10l5 43 4 50v29l-129 9-11 1-4 50-6 50-7 51-5 37-13 81-6 35-18 104-12 71-12 80-8 64-6 58-1 12-1 2-5-1-42-19-32-14-3-1h-12l-11 4-10 6-10 9-8 8-10 14-7 11-4 10-7 19-5 20v25l2 12 7 13 8 6 17 8 36 16 28 13 8 3-7-8-4-10-2-9v-18l1-14 4-16 3-9 9-20 10-16 9-11 13-13 13-8 8-3 4-1h10l16 6 1-5 13-27 8-12 9-11 8-8 5-3 7-2 10-11 13-17 12-18 10-18 8-20 6-21 5-16 8-9 9 2 19 8 15 9 16 12 13 12 13 14 11 16 6 9 8 16 6 15 4 16 3 23v36l-3 28-6 31-3 10 10 1 1-10 20-100 6-28 13-66 4-8 7-6 5-2 16 1 21 3 25 3 36 4 13 2 18 2 8 6 3 6v9l-14 68-7 37-5 25-5 23v4l16-24 8-11 10-15 9-13 55-80 13-19 15-22 10-14 5-3 11-2 8-11 14-19 7-10 8-10 2-2h15l12 5 9 6 6 8 1 2v7l-13 41-5 4-6 9-2 6-1 87v141l4 9 6 8 10 8 16 8 18 6 20 4 22 2h15l23-2 20-4 20-7 13-7 10-8 6-8 36 3 48 6 43 7 37 8 25 7 16 6 11 6 6 7-1 6-7 5-12 4-23 4-36 3h-84l-53-3h-6l16 8 9 7 3 5-1 5-5 4-13 4-17 2h-55l-41-3-44-5-47-7-50-9-42-9-2 6-2 12 29 4 41 8 30 8 24 8 20 9 12 8 8 8 3 6v8l-4 7-8 7-16 8-18 6-27 6-33 5-32 3-45 2h-38l-49-2-48-4-46-6-38-7-30-7-29-9-19-8-13-7-30-1-26-2-37-5-42-8-38-9-42-12-46-15-34-13-28-12-30-14-24-13-21-13-17-13-12-11-8-11-4-11 1-11-4-8-5-16-2-8v-23l4-18 1-2h-239l-3-3v-5l3-3 243-1 8-16 2-3-21-8-25-12-15-10-13-11-8-8-10-14-8-17-4-14-2-16v-14l2-17 5-22 8-24 10-23 9-19 12-22 16-27 17-28 11-18 10-18 13-27 9-24 7-25 5-26 2-19v-40l-3-26-6-27-7-22-8-21-14-29-14-24-17-25-16-23-13-21-12-22-9-23-5-20-2-14v-29l3-19 4-15 6-16 12-23 12-17 11-13 12-13 12-11 14-11 14-10 18-11 16-8 21-9 22-7 26-6 26-4 23-2 27-1h23l58 2 49 2h48l25-2 33-5 36-8 34-10 38-13 43-17 29-11 30-10 24-6 23-4z" fill="#FAFBFB"/>
<path transform="translate(988,344)" d="m0 0h17l16 5 15 8 14 11 14 12 9 9 3 5 1 4v9l-13 52-5 21-5 24 22 2 30 4h6l33-14h2l17 337 1 17 6-11 10-13 12-14 9-8h2v-2l17-13h2v-2l6-4-1-9 9-24 4-4 3-1h12l16 3 20 6 22 9 16 8 13 8 8 7 2 3v7l-9 23-4 4h-3l6 39v35l-4 23-4 14-3-4-7-8-12-9-16-9-17-9-10-4-12-5-18-7-24-8 4 22 2 22-13 11-14 11-14 12-6 5 8 3 33 11 26 11 17 8 19 11 11 8 8 7v2h2l1 2v8l-7 17h-2l-4-7-9-7-18-8-16-4-15-2h-25l-20 3-17 5-15 8-7 6-4 6-1 3-1 36-15 10-1-2 12-38v-7l-6-9-9-6-12-5h-15l-8 9-6 9-14 19-11 15-11 2-6 4-8 12-15 22-13 19-77 112-15 22-7 10h-1l1-10 7-33 5-25 8-42 10-48v-9l-4-7-6-4-31-4-36-4-25-3-30-4h-7l-8 4-5 6-3 10-17 86-6 28-17 85h-8l-2-1 2-10 6-31 3-28v-36l-3-23-5-19-7-16-8-15-8-12-9-12-14-15-11-10-17-12-12-7-19-8-9-2-7 8-5 16-6 21-8 20-11 20-11 16-10 13-12 14-3 3-8 2-10 9-10 12-9 15-12 25-1 3-6-1-10-4h-10l-10 3-12 7-10 9-8 8-12 17-8 15-5 12-5 17-2 8-1 14v18l4 15 6 9 3 4-9-3-28-13-32-14-15-7-11-6-6-7-5-10-2-12v-25l5-20 7-19 5-11 10-16 9-11 13-13 11-7 9-4 4-1h12l17 7 42 19 23 10 4-44 7-61 8-59 9-58 13-78 8-45 11-65 7-40 10-65 7-49 7-54 3-27 4-50 1-1 96-7 28-2h16l-1-29-4-50-5-43v-10l3-9 6-7 26-17 16-9 14-6 13-3h17l11 2 21 7 23 11 15 10 7 6 8 14 8 20 5-8 9-16 7-12 9-7 27-13 24-9 14-4z" fill="#08A6C6"/>
<path transform="translate(1040,510)" d="m0 0h1l2 27 21 401 6 116-16 22-11 2-6 4-8 12-15 22-13 19-77 112-15 22-7 10h-1l1-10 7-33 5-25 8-42 10-48v-9l-4-7-6-4-31-4-36-4-25-3-30-4h-7l-8 4-5 6-3 10-17 86-6 28-17 85h-8l-2-1 2-10 6-31 3-28v-36l-3-23-5-19-7-16-8-15-8-12-9-12-14-15-11-10-17-12-12-7v-4l28-38 4-5 5 2 15 10 17 9 18 7 23 6 13 2h38l16-2 17-5 16-6 17-9 14-10 12-11 7-7 11-15 6-10 8-19 5-16 2-10 2-23-2-31-6-25-7-19-8-16-9-15-10-13-11-12-10-9-10-7-1-4 12-16 52-72 14-19 10-14 78-108z" fill="#008FB1"/>
<path transform="translate(988,344)" d="m0 0h17l16 5 15 8 14 11 14 12 9 9 3 5 1 4v9l-13 52-5 21-5 24 22 2 30 4h6l33-14h2l17 337 1 17 6-11 10-13 12-14 9-8h2v-2l17-13h2v-2l6-4-1-9 9-24 4-4 3-1h12l16 3 20 6 22 9 16 8 13 8 8 7 2 3v7l-9 23-4 4h-3l6 39v35l-4 23-4 14-3-4-7-8-12-9-16-9-17-9-10-4-12-5-18-7-24-8 4 22 2 22-13 11-14 11-14 12-6 5 8 3 33 11 26 11 17 8 19 11 11 8 8 7v2h2l1 2v8l-7 17h-2l-4-7-9-7-18-8-16-4-15-2h-25l-20 3-17 5-15 8-7 6-4 6-1 3-1 36-15 10-1-2 12-38v-7l-6-9-9-6-12-5h-15l-8 9-6 9-3 2-7-138-7-133-9-172-5-90v-8l-22 2-15 1 2-16 7-33 3-14 3-16v-5l-13-9-13-6-6-2h-27l-17 4-7 1 5-12 7-17 4-13 3-16 5-3 15-4z" fill="#008FB1"/>
<path transform="translate(786,735)" d="m0 0h22l21 4 16 6 17 9 10 7 13 11 9 9 13 17 9 15 8 16 7 19 6 25 2 31-2 23-3 14-7 20-8 16-8 12-9 11-13 13-15 11-16 9-17 7-13 4-13 3-10 1h-38l-17-3-22-6-15-6-19-10-17-12-11-10-5-4-7-8-9-12-8-14-5-11-6-19-2-26 1-16 6-26 8-20 9-17 10-15 11-14 13-14 8-7 14-11 14-9 21-11 20-7 12-3z" fill="#FAFBFB"/>
<path transform="translate(1136,1082)" d="m0 0 4 1 4 8 7 7 12 7 18 6 17 3h36l17-3 18-6 11-6 8-7 4-7 5 2 8 6 8 9 4 9v68l-6 9-3 4 7-8h1l1 6-1 33-1 70 1 1v47l-5 10-8 9-14 9-14 6-16 5-24 4-15 1h-15l-22-2-24-5-21-8-13-8-10-9-5-8-2-6v-141l1-87 4-9 7-9 13-9z" fill="#CACBCF"/>
<path transform="translate(863,522)" d="m0 0h14l-5 4-16 9-33 22-19 14-14 11-14 12-10 9-12 11-18 18-7 8-12 13-9 11-13 15-22 28-12 16-13 18-22 33-14 22-15 25-15 27-17 33-12 25-16 37-13 34-16 47-10 36-8 33h-1l1-14 11-72 17-101 20-116 12-76 9-65 7-61 4-44 1-1 95-7z" fill="#66B7D4"/>
<path transform="translate(616,1047)" d="m0 0 9 2 19 8 15 9 16 12 13 12 13 14 11 16 6 9 8 16 6 15 4 16 3 23v36l-3 28-6 31-3 10 2 1h-3v2l-103 16-4 1 16 6 10 6 10 9 5 8 1 4v13l-1 14-3 9-6 8-11 7-12 5-14 3-18 2 6 3 4-1 4-2 9-1 10 3 6 5 1 5-2 3-3 1h-12l-12-4-4 3-10 1-12-3-5-3-1-5 4-4 3-2-17-3-16-5-16-8-2-4 12-15 5 1 16 6 15 3 10 1h14l16-2 18-6 9-6 7-8 2-5v-10l-5-10-9-8-15-8-17-5-11-2h-37v-2l5-1-5-1v-6h7l-2-2-6 1-4-10 1-2 4-2-3-7-19-1-7-4-5-12-9-12-7-6-6-4 2-4 9-16 8-18 1-1v-6l-2-9 7-7 6-5 3-5h2v-2l8-7 9-11 12-16 12-19 9-17 9-25 7-26 6-8z" fill="#DEECF4"/>
<path transform="translate(1093,1023)" d="m0 0h15l12 5 9 6 6 8 1 2v7l-13 41-5 4-6 9-2 6-1 87-1 132-10 1h-49l3-10 15-43 13-36 3-8h-4l-2 9-16 43-9 26-14 38-6 16 5 1 1 7-3 10-2 2h-7l-10-3-7-11-7-5h-7l-6 3-3 3-5-1-20-8-16-8-20-11-22-14-14-10v2h-2l-1-5-5-4-4 1-5 3-13-1-25-3-5-3-2-4 1-8 2-4 5-3h9l31 4 6 5 7-6 7-2 46-26 12-6 17-10 11-6 19-10 18-10 14-8h2v-2l-5-1-15-8-11-6-11-7-10-6v-2l-5-2-3-2-4 1-2 1 2-5 11-15 8-12 11-16 13-19 15-22 10-14 5-3 11-2 8-11 14-19 7-10 8-10z" fill="#C2CBD4"/>
<path transform="translate(792,1089)" d="m0 0h11l73 9 43 5 6 3 4 5v2l2 1-1 4-16 81-1 3h3l-1 9-5 25-8 38v4l16-24 8-11 10-15 9-13 22-32 4-3 5 1 6 4v2l6 2 10 7 13 8 16 8 7 3v2l-22 12-19 11-12 6-16 9-21 12-12 6-39 22-7 2-6 5-5-5-31-4h-9l-5 2-2 7 1 7 3 3 2 1 33 4 7-1 4-3 4 1 6 5-1 4h2v-2l2 1-1 7-6 8-6 4-9 1-97-12-16-2-1-3-9-1-5-4-2-4v-9l27-135 6-28 9-45 7-8z" fill="#DEECF4"/>
<path transform="translate(1244,745)" d="m0 0h12l16 3 20 6 22 9 16 8 13 8 8 7 2 3v7l-9 23-4 4h-3l6 39v35l-4 23-4 14-3-4-7-8-12-9-16-9-17-9-10-4-12-5-18-7-24-8 4 22 2 22-13 11-14 11-14 12-6 5 8 3 33 11 26 11 17 8 19 11 11 8 8 7v2h2l1 2v8l-7 17h-2l-4-7-9-7-18-8-16-4-15-2h-25l-20 3-8 2h-4l-3-61v-15l8 1 1-5-9-2-1-8 14 1v-4l-7-2-7-1-1-8-3-58v-6l10-16 11-14 10-11 7-6h2v-2l17-13h2v-2l6-4-1-9 9-24 4-4z" fill="#875748"/>
<path transform="translate(796,789)" d="m0 0h29v60l28-1h30l1 20 1 45v24l-61-1v60h-13l-10-1-52-2-16-1 2-37 1-16 1-6h-52l-9-1 2-25 5-50 1-6 17-1h41l1-25 2-33 1-1z" fill="#119CBD"/>
<path transform="translate(1136,1082)" d="m0 0 4 1 4 8 7 7 12 7 18 6 17 3h36l17-3 18-6 11-6 8-7 4-7 5 2 8 6 8 9 4 9v68l-6 9-10 9-14 8-15 6-18 5-19 3-12 1h-26l-25-3-21-5-20-8-12-7-10-8v-78l4-9 7-9 13-9z" fill="#F4942D"/>
<path transform="translate(1145,496)" d="m0 0h2l17 337 4 82v8h7l7 2 1 5-1 1-12-1-2-1 1 8 9 1 1 5-4 2-5-1v14l2 41v20l2 1-11 4-11 6-7 6-4 6-1 3-1 36-15 10-1-2 12-38v-31l-21-421-4-78v-9l-2-1 16-6z" fill="#09A6C6"/>
<path transform="translate(617,1048)" d="m0 0 8 1 19 8 15 9 16 12 13 12 12 13-1 6-14 24-13 22-17 29-15 25-14 24-13 22-17 29-9 15-7 11-3-1-12-26-11-26-14-38-5-14 2-4 14-17 14-19 10-15 12-20 8-15 8-19 6-20 5-22z" fill="#FAFBFB"/>
<path transform="translate(372,1197)" d="m0 0h12l17 7 42 19 33 15v1l-13 2-10 4-12 8-14 14-12 17-8 15-5 12-5 17-2 8-1 14v18l4 15 6 9 3 4-9-3-28-13-32-14-15-7-11-6-6-7-5-10-2-12v-25l5-20 7-19 5-11 10-16 9-11 13-13 11-7 9-4z" fill="#373F70"/>
<path transform="translate(1093,1023)" d="m0 0h15l12 5 9 6 6 8 1 2v7l-13 41-5 4-6 9-2 6-1 53-11 30-12 34-1 2-5-1-23-8-23-10-22-11-16-9-16-10-6-5 1-5 10-14 15-22 13-19 15-22 10-14 5-3 11-2 8-11 14-19 7-10 8-10z" fill="#C6E3E0"/>
<path transform="translate(795,1090)" d="m0 0 101 12 23 3 6 4 3 7-9 11-2 3h-2l-4-5-12-2-27-3-6 3-3 6v6l1 4 7 2 31 4v3l-11 13-3 4-14-1-12-1-6 4-2 4 1 9 3 3 12 3-4 6-12 14-6 2-2 5-3 7-9 11-2-2 12-60 3-19-11 51-6 31-2 7-10 11-2 2-4-6-6-2-27-3h-9l-5 3-2 4v8l4 4 10 2 24 3 3 2-14 18-3 1-17-2h-12v2l-3 3-1 9 2 4 4 2 9 1 2 1-2 4-10 13h-9l-6-3-3-4v-11l23-114 14-71 5-21 3-5 5-3z" fill="#FAFBFB"/>
<path transform="translate(773,402)" d="m0 0h23l17 4 15 6 16 43 9 28-1 7-8 27-1 1-84 6h-13l-2-57-3-42v-9l12-7 16-6z" fill="#FAFBFB"/>
<path transform="translate(1315,1294)" d="m0 0h1v47l-5 10-8 9-14 9-14 6-16 5-24 4-15 1h-15l-22-2-24-5-21-8-13-8-10-9-5-8-2-6v-38h2l5 5 10 7 17 8 20 6 24 4 12 1h24l26-3 21-5 16-6 16-9 10-9z" fill="#E47D32"/>
<path transform="translate(967,404)" d="m0 0h27l13 5 11 6 9 7-1 10-8 38-7 36-97 7h-7l-4-21v-6l12-25 12-23 12-22 3-5 15-5z" fill="#F9FBFB"/>
<path transform="translate(372,1197)" d="m0 0h12l17 7 42 19 33 15v1l-13 2-10 4-12 8-11 11-4 2-10 14-5 8-4-4v-2l-3 3-8 17-4 9-6-1-13-6 1-6 4-10-2-4-5-8-3 4-6 14-1 3-6-1-1-1 1-8 9-19-1-7-4 1-2 5-8 17-3 7-7-3 3-10 9-19 4-6-1-4-2-2-3 3-10 18-7 17-7-3 2-9 9-19 10-15-1-5-6-9v-2h-2l-2 4-7 5 2-4 9-10 9-9 11-7 9-4z" fill="#4D578E"/>
<path transform="translate(1112,1119)" d="m0 0 8 6 11 7 16 7 18 5 17 3 10 1h32l22-3 13-2-6 7-7 8-12 13-18 20-11 12-14 16-12-1-21-4-18-6-16-8-10-7-4-4h2z" fill="#F7AC59"/>
<path transform="translate(831,1403)" d="m0 0 3 3 5 11 4 14 2 13-2 1-1 13-3 10-5 2-18 4-77 14-12 2h-10l-10-5-9-10-4-10-2-9 1-11 4-11 6-5 31 7-2-6 1-4 4 9v2l12 2 8 2-3-12-2-7 3 3 5 14 1 3 18 4-2-13-5-13 1-2 5 10 4 13 1 5 15 4-1-15-1-9-3-7 1-4 4 8v3h2v-5l7-9 10-5 11-1 6 8 3 7-3-10-3-6z" fill="#CDD7E0"/>
<path transform="translate(659,1384)" d="m0 0 1 2h19l64 2h133l-1 5-3 1 8 16 4 14 1 13h-3l-2-15-4-15-5-10v-2l-19 3 2 6-5-5-17 3 1 5 5 12-1 4-6-12-3-4-11 1-10 5-6 8-1 5h-2l-4-9 3 9 1 9 1 16-16-4-8-24-1-1 4 11 1 13-12-2-7-2-5-15-1-1 3 9v6l-8-1-12-3-4-9v-2l-3-1-2-4-9 1-13 2-21-13-26-14-3-2z" fill="#DEECF4"/>
<path transform="translate(1109,1189)" d="m0 0 5 3 11 8 15 7 18 6 21 4 18 2h34l-3 2-10 1-5 5-29-1-6 7-5 5-5 6v1l11 2 12 1 2 2-12 12-10-1 2 10-5 6-2 1-9-1-11-3v10l8 1 4 1-2 4-4 4-10-2-15-5-2 4-2 3 16 6 4 2-6 8-4 5 6 4-2 1-17-9-10-8v-2h-2v-103z" fill="#F8FBFB"/>
<path transform="translate(577,1323)" d="m0 0h12l17 2 18 5 14 7 10 9 5 7 1 3v10l-4 8-8 7-12 6-16 4-7 1h-22l-18-3-15-5-7-4 2-6 6-13 4-11 3-15 1-9 6-2z" fill="#54609A"/>
<path transform="translate(1333,817)" d="m0 0h2l1 3-2 6 6 35 1 21-1 17 1 1v9l-3 14-3 11-3-4-7-8-12-9-16-9-17-9-10-4-12-5-18-7-10-4 1-3 8-7 12-11 6-5 6 1 18 8 6 1 15-14 8-7 13-12z" fill="#734536"/>
<path transform="translate(971,1180)" d="m0 0 5 1 6 4v2l6 2 10 7 13 8 16 8 7 3v2l-22 12-19 11-12 6-16 9-21 12-12 6-16 9-21 12-3-1 3-6h2l2-10 1 3h2l2-5 15-22 11-16 13-19 22-32 5-5z" fill="#FAFBFB"/>
<path transform="translate(1170,954)" d="m0 0 16 4 30 10 26 11 17 8 19 11 11 8 8 7v2h2l1 2v8l-7 17h-2l-4-7-9-7-18-8-16-4-15-2h-25l-20 3-8 2h-4l-2-41z" fill="#734536"/>
<path transform="translate(1234,779)" d="m0 0h14l21 5 23 8 18 8-2 4-8 7-13 12-8 7-13 12-7 6-7-1-24-7-23-4-25-2 2-4 9-11 11-11 14-11 15-12z" fill="#9B6B5D"/>
<path transform="translate(1108,1164)" d="m0 0h1v34l-1 132-10 1h-49l3-10 15-43 13-36 23-65z" fill="#008FB1"/>
<path transform="translate(1097,1138)" d="m0 0 8 1 4 2v23l-11 30-12 34-28-10-20-9-17-8-17-10v-2l28-15 23-13 26-14z" fill="#8FCDCE"/>
<path transform="translate(988,344)" d="m0 0h17l16 5 15 8v16l-3 23-5 26-5-2-10-7-13-6-6-2h-27l-17 4-7 1 5-12 7-17 4-13 3-16 5-3 15-4z" fill="#007694"/>
<path transform="translate(961,351)" d="m0 0 2 1-4 20-6 17-9 20v2l-3 3-12 23-12 22-10 21-3 6h-2l-6-28-9-30-4-11 6-12 8-14 7-12 9-7 27-13z" fill="#018FB1"/>
<path transform="translate(1143,1038)" d="m0 0h3l-1 5-1 2v11l4 7v2l4 2v2l5 2 5 3 8 4 17 5 10 2 1 1h8 2 17 3 8v-1l11-2 1 1 3-2 13-4 13-7 5-4 6-9 3-7 2-1 1 4v28l-5 10-9 8-16 8-17 5-13 2h-36l-21-4-16-6-11-7-8-8-4-9 1-36 3-6z" fill="#CFD8E1"/>
<path transform="translate(773,345)" d="m0 0h17l11 2 16 5 1 22 4 19 5 16v2l-9-2-16-5-6-1h-23l-15 5-14 7h-3l-1-14v-28l2-15 4-4 14-6z" fill="#008FB1"/>
<path transform="translate(577,1319)" d="m0 0h11l18 2 19 5 14 6 11 8 8 9 3 8v13l-1 14-3 9-6 8-11 7-12 5-14 3-18 2 6 3 4-1 4-2 9-1 10 3 6 5 1 5-2 3-3 1h-12l-12-4-4 3-10 1-12-3-5-3-1-5 4-4 3-2-17-3-16-5-16-8-2-4 12-15 5 1 16 6 15 3 10 1h14l16-2 18-6 9-6 7-8 2-5v-10l-5-10-9-8-15-8-17-5-11-2h-37v-2z" fill="#434D86"/>
<path transform="translate(1244,745)" d="m0 0h12l16 3 20 6 22 9 16 8 13 8 8 7 2 3v7l-9 23-4 4h-2l-1-7-7-7-17-10-22-10-27-9-14-3h-17l-4 4-1-7 9-24 4-4z" fill="#E4303A"/>
<path transform="translate(1313,1118)" d="m0 0h1v66l-9 10-14 9-16 7-21 6-19 3h-14l6-8 10-10 7-8 15-16 22-24 24-26z" fill="#E47D32"/>
<path transform="translate(1309,1198)" d="m0 0h1v65l-14 9-18 8-21 6-6 1v-64l6-2 21-6 16-7z" fill="#ACADB1"/>
<path transform="translate(1167,862)" d="m0 0 18 1 24 5 7 2 4 23 2 22-13 11-14 11-21 18h-3l-2 3v-15l8 1 1-5-9-2-1-8 14 1v-4l-7-2-7-1-1-8-2-43v-9z" fill="#777DAD"/>
<path transform="translate(1095,1041)" d="m0 0 36 5 4 1 1 4-13 41-5 4-6 9-2 6-1 9-9-2-13-5-19-10-14-9-7-6 1-4 10-4 9-5 16-9 12-6 11-7h3v-2l-5-2-5-3z" fill="#C1CBD4"/>
<path transform="translate(1316,1201)" d="m0 0h1v33l-1 4h271l3 3v5l-3 3h-270v89h-1l-1-43-2-1 1-1 1-70z" fill="#FBFCFC"/>
<path transform="translate(334,1304)" d="m0 0 4 1 9 4 19 8 8 4 13 6-1 9-1 8v21l4 15 2 6-9-3-42-19-4-2-4-11-1-6v-25z" fill="#F9FAFA"/>
<path transform="translate(487,1363)" d="m0 0 10 1 8 5 4 5 2 6 9 4 4 4-1 7 7 6 2 3v5l2-1h9l9 3 3 3v5l-3 3-7 2-8 1 5 4v2h2l2-4 7-3h13l6 3 3 3-1 5-5 3-3 1h-16l-6-3-2-2-3 3-7 2h-13l-7-3-1-1v-5l1-1-13-1-9-3-4-4 1-5 4-3 3-1h11l10 5 3 4 1 3 7-2-3-3 2-6-12-4-5-3h-13l-7-3-3-5-2-6 1-5h7l3-4h2v-2l-5-1-9-6 1-10z" fill="#58639B"/>
<path transform="translate(891,1297)" d="m0 0 8 6 18 13 21 13 27 14 20 9 36 12 13 3 2 2v9l-3 6-5 1-13-3-6-10-7-5h-7l-6 3-3 3-5-1-20-8-16-8-20-11-9-6-4-4-16-11-14-11-3-3 1-5 5-5z" fill="#C2CBD4"/>
<path transform="translate(1093,1023)" d="m0 0h15l12 5 9 6 6 8 1 2v6l-1-3-17-2-22-3 4 4 9 5v2l-42 23-16 8h-3l1 5 12 9 10 6 21 10 17 6v12l-9-3-19-8-15-8-10-5-10-6-11-7-4-3 2-5 6-8 8-3 7-1 8-11 14-19 7-10 8-10z" fill="#F8FAFB"/>
<path transform="translate(831,1403)" d="m0 0 3 3 5 11 4 14 2 13-2 1-1 13-3 10-5 2-13 1-9-4-5-5-5-6-4-9-1-12-1-9-3-7 1-4 4 8v3h2v-5l7-9 10-5 11-1 6 8 3 7-3-10-3-6z" fill="#54609A"/>
<path transform="translate(1085,1228)" d="m0 0h1l2 35 3 60v8h-42l3-10 15-43 13-36z" fill="#0290B1"/>
<path transform="translate(434,1224)" d="m0 0h6l15 7-3 3-12 7-12 11-10 11-10 15-10 19-5 13-4 1-16-7 1-6 8-18 8-14 10-14 11-12 9-8z" fill="#F7F8F9"/>
<path transform="translate(389,1202)" d="m0 0 6 2 5 4 9 2 5 4 8 2 3 3-12 6-9 7-10 9-4 5-6-1-3-3-2-5-5 4-11 16-9 16-8 18-7-3 3-10 9-19 10-15 9-11 2-2-1-7-8 7-2 2-5-1-2-1 1-4 12-12 13-9z" fill="#797FAE"/>
<path transform="translate(531,1296)" d="m0 0h1v21l-5 21-6 16-8 15-5 5-5-6-6-3-10-1h-3l2-11 6-15 7-13 9-12 10-10 10-6z" fill="#C8C9CD"/>
<path transform="translate(1147,1041)" d="m0 0 4 3v2l4 2 10 7 18 8 17 5 21 3h26l16-3 12-4 10-5-2 4-4 5-10 6-11 5-16 4-18 2h-18l-20-3-19-6-10-6-9-8-3-6v-10z" fill="#CED8E1"/>
<path transform="translate(1171,979)" d="m0 0 10 2 26 9 24 10 23 11 17 10 6 4-3 1-17-7-19-4-9-1h-25l-20 3-8 2h-4l-1-20z" fill="#734537"/>
<path transform="translate(422,1219)" d="m0 0 5 1 7 3v2l-11 6-11 9-8 8-11 15-10 17-3 6-4-2-5-8-3 4-6 14-1 3-6-1-1-1 1-8 9-19-1-7-3 1 2-5 9-13 6-7h2l3 5v2l8 1 7-8 10-9z" fill="#454F88"/>
<path transform="translate(1217,885)" d="m0 0 2 4 2 15 1 11-13 11-14 11-21 18h-3l-2 3v-15l8 1 1-5-9-2-1-8 14 1v-4l-7-2-7-1v-7l18 1 3-7 8-7 13-12z" fill="#55619A"/>
<path transform="translate(835,1292)" d="m0 0h9l31 4 6 5 7-6 5 1 14 11 24 16 23 13 23 11 21 8 18 6 20 5 2 4-1 9-3 6-1 1h-7l-10-3 3-1 9 2 5-1 2-5v-9l-5-2-19-5-26-9-20-9-22-11-23-14-18-13-10-8-10 5-2 4 1 4 12 10 20 14 3 3-5-2-12-8-10-7v2h-2l-1-5-5-4-4 1-5 3-13-1-25-3-5-3-2-4 1-8 2-4z" fill="#CCD6DF"/>
<path transform="translate(1145,1094)" d="m0 0 4 2 10 7 15 6 17 4 7 1h36l17-3 18-6 9-5 3 1-6 8-10 7-14 6-19 4-12 1h-13l-18-2-15-4-12-5-10-7-6-8z" fill="#E57F34"/>
<path transform="translate(1095,1041)" d="m0 0 36 5 4 1 1 4-1 3-23 12-23 13-24 13-8 4-9-7-1-3 3-3 6-2 11-6 16-9 12-6 11-7h3v-2l-5-2-5-3z" fill="#CED8E1"/>
<path transform="translate(494,1412)" d="m0 0h11l10 5 3 4 1 3 7-2-2-4 12 3h12v2l-11 2 5 4v2h2l2-4 7-3h13l6 3 3 3-1 5-5 3-3 1h-16l-6-3-2-2-3 3-7 2h-13l-7-3-1-1v-5l1-1-13-1-9-3-4-4 1-5 4-3z" fill="#56629B"/>
<path transform="translate(331,1229)" d="m0 0v3l-10 15-9 19-6 19-3 15v27l4 14 4 6 24 11 1 4 6 2 42 19 6 2 3-1h2l-4-13-1-8v-14l3-19 3-14-3-6 3-10 8-17 3-1 4 5 10-16 7-8v3l-11 15-9 16-6 14-5 17-2 8-1 14v18l4 15 6 9 3 4-9-3-28-13-32-14-15-7-11-6-6-7-5-10-2-12v-25l5-20 7-19 5-11 10-16z" fill="#48528A"/>
<path transform="translate(363,1200)" d="m0 0 3 1-7 4 7 12-11 11-1 3 7 1 8-8h2l2 4-1 4-8 9-7 10-5-4-3 3-10 18-7 17-7-3 2-9 9-19 10-15-1-5-6-9v-2h-2l-2 4-7 5 2-4 9-10 9-9 11-7z" fill="#454F87"/>
<path transform="translate(1315,1294)" d="m0 0h1v47l-5 10-8 9-14 9-14 6-16 5-24 4-15 1h-15l-22-2-24-5-21-8-13-8-10-9-5-8-2-6v-38h2l5 5 10 7 6 3-6 7-13 14 1 5 3 6 8 9 11 7 12 6 19 6 15 3 20 2h24l19-2 19-4 15-5 16-8 10-8 6-8 2-5 1-10v-34z" fill="#F39632"/>
<path transform="translate(798,1110)" d="m0 0 34 4 6 2 3 4v8l-3 5-4 3h-11l-30-4-4-4-1-2v-7l3-5 4-3z" fill="#F9FBFB"/>
<path transform="translate(786,1154)" d="m0 0h13l28 4 5 5 1 7-3 5-2 3-3 1h-10l-26-3-7-3-3-5 1-7 3-5z" fill="#F9FBFB"/>
<path transform="translate(535,1235)" d="m0 0 2 2 11 28 10 23v2h-19l-7-4-5-12-6-8 1-5 9-16z" fill="#0290B2"/>
<path transform="translate(785,1094)" d="m0 0v3l-3 10-10 48-23 116-7 34v11l5 5 17 3 107 13 7-1 6-5 3-8h2v-2l2 1-1 7-6 8-6 4-9 1-97-12-16-2-1-3-9-1-5-4-2-4v-9l27-135 6-28 9-45z" fill="#CED8E1"/>
<path transform="translate(1085,1228)" d="m0 0h1l2 35 3 60v8h-42l2-8 1 2h31l-4-73-1-4z" fill="#09A6C6"/>
<path transform="translate(582,1416)" d="m0 0h13l1 2 6 3 4-1 4-2 9-1 10 3 6 5 1 5-2 3-3 1h-12l-12-4-4 3-10 1-12-3-5-3-1-5 4-4 3-2z" fill="#58639C"/>
<path transform="translate(526,1210)" d="m0 0 2 2 7 20 1 3-8 18-7 11-7-6-9-6 2-4 9-16 8-18z" fill="#C8D6DF"/>
<path transform="translate(577,1319)" d="m0 0h11l18 2 19 5 14 6 11 8 8 9 3 8v13l-4 5-8 8-16 8-16 4-7 1h-27l-18-3-18-6-5-3 1-2 5 1 16 6 15 3 10 1h14l16-2 18-6 9-6 7-8 2-5v-10l-5-10-9-8-15-8-17-5-11-2h-37v-2z" fill="#5A659D"/>
<path transform="translate(467,1201)" d="m0 0h2l-1 18-1 12-1 2-5-1-36-16 2-2 25-8z" fill="#DDEBF3"/>
<path transform="translate(788,1409)" d="m0 0 3 3 4 8 3 9v12l1 10-16-4-8-24-4-8 1-3z" fill="#F8F9FA"/>
<path transform="translate(1231,1225)" d="m0 0h1v23l-10 1h-28l2-4 7-7 7-8 3-4z" fill="#ACADB1"/>
<path transform="translate(454,1232)" d="m0 0 11 5v2l-11 4-10 6-5 5-6 7-4 3-5 5-8 11-5 8-4-4v-2l-2-1 10-15 9-11 12-12 14-9z" fill="#767CAD"/>
<path transform="translate(1165,1279)" d="m0 0 15 1 11 1h41v9l-12 1h-29l-26-3-6-1 2-4z" fill="#ACADB1"/>
<path transform="translate(824,1406)" d="m0 0 5 1 6 9 2 7h2l2 12v8l-12-2-6-2-4-15-5-12-1-3 4-2z" fill="#777DAE"/>
<path transform="translate(422,1219)" d="m0 0 5 1 7 3v2l-11 6-11 9-8 8-10 14-3-4-7-11v-3l6 1 7-8 10-9z" fill="#787EAE"/>
<path transform="translate(377,1225)" d="m0 0 7 1 2 1-1 3-5 5-9 10-10 15-8 15-7 16-7-3 3-10 9-19 10-15 9-11z" fill="#F3F4F5"/>
<path transform="translate(766,1413)" d="m0 0 4 1 6 13 3 12v7l-12-2-7-2-5-15-5-9v-2z" fill="#F8F9FA"/>
<path transform="translate(1010,1415)" d="m0 0h1l-1 8-24 4-16 3-12 2-5 1-19 4h-6v-7l25-5 39-7 13-2z" fill="#DEECF4"/>
<path transform="translate(793,1415)" d="m0 0 3 4 5 12 3 16v5l12 2 23 5 2 1-2 8-5 2-13 1-9-4-5-5-5-6-4-9-1-12-1-9-3-7z" fill="#465088"/>
<path transform="translate(973,1174)" d="m0 0 7 6 18 11 24 13 23 11 23 9 17 6-2 4-30-10-18-8-10-4-17-9-13-8-7-5-6-3v-2l-5-2-3-2-4 1-2 1 2-5z" fill="#99D0D0"/>
<path transform="translate(1172,1298)" d="m0 0 12 1h48v9l-9 1h-38l-13-2z" fill="#ACADB1"/>
<path transform="translate(1128,1122)" d="m0 0 5 2 18 8 18 5 19 3h33l24-3 23-5 20-7 9-3-3 3-18 8-20 6-20 4-20 2h-21l-18-2-20-5-16-7-12-7z" fill="#F7AC59"/>
<path transform="translate(1181,1262)" d="m0 0 18 1h33v9l-17 1h-13l-26-2-2-2z" fill="#ACADB1"/>
<path transform="translate(1227,954)" d="m0 0 5 1 27 12 21 11 15 10 2 4-1 2-5-1-16-10-16-8-19-9-14-6v-5z" fill="#4A548B"/>
<path transform="translate(1237,928)" d="m0 0 6 1 24 11 20 10 17 11 3 2-1 5-5-1-20-12-15-8-20-9-10-5z" fill="#49538B"/>
<path transform="translate(1232,941)" d="m0 0 7 1 12 6 23 11 16 9 11 8 1 3-1 2-5-1-14-9-11-6-23-11-17-7v-5z" fill="#49538B"/>
<path transform="translate(1267,911)" d="m0 0h7l27 14 6 4v6l-3 2h-6l-18-10-14-7-1-1v-6z" fill="#49528A"/>
<path transform="translate(1170,971)" d="m0 0h1v5l9 2 27 9 24 10 25 12 17 10 13 10 6 5 7-17h1v8l-7 17h-2l-4-7-9-7-3-2-4-4-21-12-23-11-31-12-25-8-1-1z" fill="#865649"/>
<path transform="translate(741,1417)" d="m0 0h8l6 12 2 6v6l-8-1-12-3-7-15v-3z" fill="#F8F9FA"/>
<path transform="translate(792,1089)" d="m0 0h11l73 9 43 5 6 3 4 5v2l2 1-1 4-16 81-1 3h3l-1 4v-3l-2 1-2 7h-1l1-10 16-80-1-9-5-5-10-2-116-14-9 3 4-4z" fill="#CDD8E1"/>
<path transform="translate(975,1172)" d="m0 0 7 4 11 7 10 6v2l6 2 22 12 27 12 22 8 5 2v3l-5-1-23-8-23-10-22-11-16-9-16-10-6-5z" fill="#FAFBFB"/>
<path transform="translate(569,1322)" d="m0 0h29l19 4 13 5 11 6 10 9 5 10v10l-4 8-8 8-12 6-13 4-16 2h-14l-21-3-18-6-7-3 2-3 12 6 15 4 13 2h22l20-4 12-5 9-7 4-6 1-3v-10l-4-8-8-8-10-6-13-5-18-4-11-1h-12l-16 2v-3z" fill="#B8BEC4"/>
<path transform="translate(1030,1091)" d="m0 0 11 7 10 6 12 7 17 8 8 4 21 9v5l-9-3-15-6-16-8-17-9-11-7-14-8z" fill="#C2E2DF"/>
<path transform="translate(428,1263)" d="m0 0v3l-11 15-9 16-6 14-5 17-3 14-1 7h-2v-9l5-22-2-5-1-5 6-15 6-11h2l4 5 10-16z" fill="#49538A"/>
<path transform="translate(376,1250)" d="m0 0 7 3-2 4-11 19-7 15-2 6-6-1-1-1 1-8 9-19 10-16z" fill="#F2F4F5"/>
<path transform="translate(347,1238)" d="m0 0 6 1 1 4-7 10-8 15-7 17-7-3 2-9 9-19 10-15z" fill="#F2F3F4"/>
<path transform="translate(553,1424)" d="m0 0h13l6 3 3 3-1 5-5 3-3 1h-16l-6-3-1-5 5-5z" fill="#57629B"/>
<path transform="translate(1027,1096)" d="m0 0 6 2 5 4 22 12 17 9 11 5 21 9v4l-9-3-14-5-15-7-16-9-11-6-10-6-8-6z" fill="#F7FAFB"/>
<path transform="translate(1166,878)" d="m0 0h10l19 4 5 4-1 6-2 2h-7l-24-5z" fill="#F3F5F6"/>
<path transform="translate(854,1208)" d="m0 0 13 1 6 1-1 8-2 8-3 1-16-2-4-4v-6l3-5z" fill="#F8FAFA"/>
<path transform="translate(836,1294)" d="m0 0 17 2 2 1-1 11-2 5-14-1-6-2-2-2v-9z" fill="#F9FAFB"/>
<path transform="translate(810,1410)" d="m0 0 3 1 6 18 1 9-9-1-9-2-4-9h2v-5l7-9z" fill="#777DAE"/>
<path transform="translate(844,1251)" d="m0 0 14 1 6 1-1 9-2 8-13-1-7-2-3-5 1-6z" fill="#F9FAFB"/>
<path transform="translate(774,1242)" d="m0 0 16 2-2 16-3 1-17-2-3-3-1-7 3-5z" fill="#F9FAFA"/>
<path transform="translate(862,1165)" d="m0 0 12 1 7 1-1 12-2 5-18-2-4-4v-7l4-5z" fill="#F9FAFB"/>
<path transform="translate(763,1285)" d="m0 0 18 2-1 12-2 5-13-1-7-2-2-3v-7l5-5z" fill="#F9FBFB"/>
<path transform="translate(780,1199)" d="m0 0 18 2-1 14-3 3-17-2-4-5 1-8 3-3z" fill="#FAFBFB"/>
<path transform="translate(790,1245)" d="m0 0 16 1 5 2 2 3-1 8-5 4-14-1-6-1z" fill="#59649C"/>
<path transform="translate(870,1122)" d="m0 0 16 1 4 1-1 10-2 6h-10l-8-1-4-4-1-6 4-6z" fill="#FAFBFB"/>
<path transform="translate(864,1254)" d="m0 0 16 1 5 2 2 3-1 8-5 4-14-1-5-1v-8z" fill="#58649C"/>
<path transform="translate(808,1158)" d="m0 0 17 2 5 4v7l-4 5-5 1-16-2 1-11z" fill="#58649C"/>
<path transform="translate(782,1288)" d="m0 0 14 1 6 2 2 2v7l-4 5-2 1-15-1-4-1 1-11z" fill="#55619A"/>
<path transform="translate(882,1167)" d="m0 0 17 2 5 4v7l-4 5-5 1-16-2 1-11z" fill="#58639C"/>
<path transform="translate(891,1124)" d="m0 0 17 2 5 5-1 7-4 4h-12l-8-1 1-14z" fill="#58649C"/>
<path transform="translate(817,1115)" d="m0 0 17 2 5 5-1 7-4 4-4 1-16-2 1-13z" fill="#58649C"/>
<path transform="translate(856,1297)" d="m0 0 14 1 6 2 2 2-1 9-5 4-14-1-5-1 1-11z" fill="#55619A"/>
<path transform="translate(799,1202)" d="m0 0 16 1 5 2 1 2v8l-4 4-6 1-15-2 2-13z" fill="#58639C"/>
<path transform="translate(873,1211)" d="m0 0 16 1 5 2 1 2v8l-4 4-6 1-15-2 2-13z" fill="#57639C"/>
<path transform="translate(862,1162)" d="m0 0 12 1 15 1 1 1 12 2 4 4 1 8-4 7-3 2h-12l-27-3-6-3-2-5v-6l4-6zm0 3-5 4-1 2v7l4 4 35 4 6-2 3-4v-7l-5-4-33-4z" fill="#CCD5DE"/>
<path transform="translate(889,1321)" d="m0 0 2 1-1 7-6 8-6 4-9 1-97-12-16-2v-3l68 8 42 5h11l6-4 3-4z" fill="#DCE9F1"/>
<path transform="translate(760,1283)" d="m0 0h12l29 4 5 5 1 7-3 6-6 4-13-1-14-1-4-1-9-2-4-3-1-9 3-6h2v-2zm3 2-6 4-1 2v7l4 4 32 4h6l5-4 1-2v-7l-3-3-13-2h-6l-1-1z" fill="#CCD6DE"/>
<path transform="translate(872,1119)" d="m0 0 36 4 5 3 3 5-2 9-6 5-6 1-31-4-7-3-2-4 1-9 4-5zm-2 3-5 5-1 4 2 6 5 2 8 1h8l1 1 8 1h12l4-4 1-7-5-5-18-2-14-2z" fill="#CCD5DE"/>
<path transform="translate(417,1215)" d="m0 0 5 1 3 3-12 6-9 7-10 9-4 5-6-1-2-1 2-5 11-11 13-9z" fill="#F2F4F6"/>
<path transform="translate(778,1197)" d="m0 0h10l31 4 4 3 1 3v7l-3 5-3 3-8 1-31-4-5-2-3-4v-9l5-6zm2 2-5 3-2 4 1 7 3 3 34 4 6-1 4-4v-8l-3-3-11-2h-8l-1-1z" fill="#CBD5DE"/>
<path transform="translate(389,1202)" d="m0 0 6 2 2 2-12 6-13 10-11 11-5-1-2-1 1-4 12-12 13-9z" fill="#F1F4F5"/>
<path transform="translate(770,1240)" d="m0 0h9l27 3 7 3 3 6-2 8-5 5-8 1-32-4-5-3-2-3v-8l4-6zm4 2-7 2-3 5 1 7 3 3 33 4h6l5-4 1-8-3-4-20-3z" fill="#CCD6DF"/>
<path transform="translate(798,1110)" d="m0 0 34 4 6 2 3 4v8l-3 5-4 3h-11l-30-4-4-4-1-2v-7l3-5 4-3zm-2 3-5 5-1 5 2 5 3 2 18 1 1 1 17 2 6-3 2-4-1-7-4-3-32-4z" fill="#CCD6DE"/>
<path transform="translate(487,1363)" d="m0 0 10 1 8 5 4 5 2 7-3 1-10-2-12-6-3-3v-7zm20 19 3 2h-9v-1z" fill="#58649C"/>
<path transform="translate(909,1216)" d="m0 0 4 1-1 9-5 25-5 23v6h-2l-3 7h-2l-1 2 1-9 12-59z" fill="#CEDBE3"/>
<path transform="translate(851,1206)" d="m0 0h12l30 4 4 4 1 2v7l-4 6-3 2h-13l-25-3-6-3-2-3-1-6 4-8zm3 2-5 3-2 4v6l4 4 34 4 6-1 4-4v-8l-3-3-11-2-25-3z" fill="#CBD5DE"/>
<path transform="translate(843,1249)" d="m0 0h11l30 4 5 5v9l-3 5-6 3-36-4-6-3-2-4v-7l4-6zm1 2-5 5-1 7 4 5 17 2 16 2h6l5-4 1-8-3-4-26-4z" fill="#CCD6DE"/>
<path transform="translate(494,1412)" d="m0 0h11l10 5 3 4v3l-4 2h-12l-10-3-6-4 2-4z" fill="#57629B"/>
<path transform="translate(786,1154)" d="m0 0h13l28 4 5 5 1 7-3 5-2 3-3 1h-10l-26-3-7-3-3-5 1-7 3-5zm2 2-6 5v8l4 4 37 4 5-3 2-3v-7l-5-4-32-4z" fill="#CCD6DE"/>
<path transform="translate(888,1295)" d="m0 0 5 1 14 11 24 16 23 13 23 11 21 8 18 6 20 5 2 4-1 9-3 6-1 1h-7l-10-3 3-1 9 2 5-1 2-5v-9l-5-2-19-5-26-9-20-9-22-11-23-14-18-13-10-8-9 3z" fill="#CED8E1"/>
<path transform="translate(393,1342)" d="m0 0h1v26l4 15 6 9 3 4-9-3-28-13-32-14 4-2 42 19 6 2 3-1h2l-4-13-1-8v-13l3-1z" fill="#4E588E"/>
<path transform="translate(847,1146)" d="m0 0h1l-1 12-8 41-6 31-12 55h-1l1-11 8-42 9-45z" fill="#CED8E1"/>
<path transform="translate(853,486)" d="m0 0 2 4 6 26-3 1-14 1 1-8 7-23z" fill="#0491B2"/>
<path transform="translate(1e3 1389)" d="m0 0h5l1 7-12 2-17 1-40 4h-5l2-2 17-3 24-4 16-3z" fill="#CED8E1"/>
<path transform="translate(1010,1415)" d="m0 0h1l-1 8-24 4-16 3-12 2-5 1-9 2-2-2 63-17z" fill="#CED8E1"/>
<path transform="translate(988,1397)" d="m0 0h6l-4 2-60 11h-6l-1-7 9-1 25-2z" fill="#DEECF4"/>
<path transform="translate(484,1391)" d="m0 0 9 1 10 5 1 3 16 8 10 2v1h-12l-10-5h-13l-7-3-3-5z" fill="#54609A"/>
<path transform="translate(1136,1050)" d="m0 0h1l2 31-15 10-1-2 12-38z" fill="#028FB1"/>
<path transform="translate(376,1198)" d="m0 0 9 3 2 2-15 9-5 4-3-1-6-11 12-5z" fill="#777DAE"/>
<path transform="translate(929,1114)" d="m0 0h2l1 11-15 74-1 3h-3l2-13 14-71z" fill="#E5F0F5"/>
<path transform="translate(526,1210)" d="m0 0 2 2v7l-10 24-6 12-4-1-3-2 2-4 9-16 8-18z" fill="#0B95B5"/>
<path transform="translate(1336,825)" d="m0 0h1l6 37v35l-1 8h-1l-2-7 1-21-1-16-5-31h2z" fill="#845647"/>
<path transform="translate(901,1380)" d="m0 0 4 2 6 7 7 13 5 17 2 13v16l-3 13-3 3 2-10 1-14-3-21-3-11-4-11-7-12z" fill="#CED8E1"/>
<path transform="translate(569,1322)" d="m0 0h29l19 4 13 5 11 6 10 9 5 10v10l-2-2-2-11-6-8-8-7-14-7-18-5-17-2h-12l-16 2v-3z" fill="#B9BFC6"/>
<path transform="translate(805,1406)" d="m0 0h5l1 4-6 5-4 6-1 5h-2l-7-15v-2z" fill="#F5F7F8"/>
<path transform="translate(1025,1098)" d="m0 0 2 1-2 5-10 14-15 22-13 19-9 13-3-1 10-14 15-22 13-19z" fill="#88CACE"/>
<path transform="translate(577,1319)" d="m0 0h11l18 2 19 5 5 2v3l-10-3-16-4-6-1h-37v-2z" fill="#626CA2"/>
<path transform="translate(554,1282)" d="m0 0 3 4 1 4h-19l-7-4-1-3z" fill="#17A9C7"/>
<path transform="translate(1167,908)" d="m0 0 16 2 4 1 1 5-2 2-18-2-1-1z" fill="#EAEEF0"/>
<path transform="translate(1251,1080)" d="m0 0m-4 1h4l-1 4-4-1-7 2-4 1h-5v1h-7l-1-1h-13v1h-7l-4-1h-5l-1-4 18 1h17z" fill="#F5F9FA"/>
<path transform="translate(401,1209)" d="m0 0 8 1 2 2-16 9-7-1-1-3z" fill="#F0F3F5"/>
<path transform="translate(1151,1294)" d="m0 0 11 2v9l-11-1-6-2 2-4z" fill="#ACADB1"/>
<path transform="translate(576,1425)" d="m0 0 9 4 4 1h15l4-4 9 4 15 2-1 2h-12l-12-4-4 3-10 1-12-3-5-3z" fill="#4A538C"/>
<path transform="translate(340,1364)" d="m0 0 9 3 37 17 3 1v3l-6-2-42-19-3-2z" fill="#515B91"/>
<path transform="translate(454,1229)" d="m0 0 5 1 17 8v1l-13 2-10 4-12 8h-3l10-8 13-6h4v-2l-9-3z" fill="#4B568E"/>
<path transform="translate(973,1174)" d="m0 0 7 6 18 11 2 2-5 2-7-5-6-3v-2l-5-2-3-2-4 1-2 1 2-5z" fill="#C2E2DF"/>
<path transform="translate(543,1382)" d="m0 0 5 1 16 6 15 3 10 1v1l-6 1h-8l-17-4-15-6z" fill="#5C669E"/>
<path transform="translate(1008,1377)" d="m0 0 5 5 6 16 2 9 1 14-2 11-2 5-1-3 2-10v-9l-3-16-4-12-4-8z" fill="#CED8E1"/>
<path transform="translate(482,1374)" d="m0 0 14 7v2l-6 5h-6l-2 2z" fill="#C6C7CB"/>
<path transform="translate(843,1444)" d="m0 0 14 2 7 2-3 2-17 3-2 3v-11z" fill="#DAE7EF"/>
<path transform="translate(826,1402)" d="m0 0 5 1 6 13 1 7-2-2-5-10-3-4-16 1-1-3z" fill="#ECEFF1"/>
<path transform="translate(502,1397)" d="m0 0 2 1v2l16 8 10 2v1h-12l-10-5h-13l-7-3-1-3 9 3 8 1-2-4z" fill="#465089"/>
<path transform="translate(1336,825)" d="m0 0h1l5 29-1 13h-1l-6-37h2z" fill="#885C4F"/>
<path transform="translate(904,1248)" d="m0 0h1v11l-3 15v6h-2l-3 6-1-3 7-34z" fill="#E2EDF2"/>
<path transform="translate(423,1215)" d="m0 0 9 3 22 10-1 3-13-6-8-2-7-3z" fill="#4C568E"/>
<path transform="translate(1155,1257)" d="m0 0 7 2v9l-9-1-4-2 2-4z" fill="#C9CBCF"/>
<path transform="translate(1168,923)" d="m0 0h7l7 2 1 5-1 1-12-1-2-1z" fill="#F1F4F5"/>
<path transform="translate(812,1409)" d="m0 0 3 3 5 12 3 10 1 14h-3l-1-11-7-24z" fill="#454F88"/>
<path transform="translate(732,1426)" d="m0 0 3 4 6 16 2 11v6h-3l-4-22-3-10z" fill="#566095"/>
<path transform="translate(873,1398)" d="m0 0 3 3 6 15 3 14v7h-3l-2-15-4-15z" fill="#515A90"/>
<path transform="translate(831,1403)" d="m0 0 3 3 5 11 4 14 2 13h-3l-5-25-5-12z" fill="#586194"/>
<path transform="translate(929,1114)" d="m0 0h2l1 11-4 20-3-1 1-10 3-16z" fill="#E1EDF2"/>
<path transform="translate(752,1422)" d="m0 0 3 3 5 14 3 12v8h-3l-3-21-5-14z" fill="#545E93"/>
<path transform="translate(772,1418)" d="m0 0 3 3 6 16 3 16v2h-3l-3-16-3-12z" fill="#596296"/>
<path transform="translate(541,1432)" d="m0 0 2 1-4 4-7 2h-13l-7-3v-2l5 1h19z" fill="#4B548B"/>
<path transform="translate(855,1406)" d="m0 0 3 4 5 15 2 16h-3l-3-18-4-14z" fill="#545E94"/>
<path transform="translate(926,1143)" d="m0 0h1l-1 11-3 15-3-1 1-9 3-14z" fill="#E4EEF4"/>
<path transform="translate(1168,916)" d="m0 0 14 1-6 7-8-1z" fill="#787EAE"/>
<path transform="translate(331,1229)" d="m0 0v3l-10 15-3 6-3 1 1-5 10-16z" fill="#4D578C"/>
<path transform="translate(543,1433)" d="m0 0 10 3h12l9-3-2 4-6 2h-16l-6-3z" fill="#48528A"/>
<path transform="translate(614,1415)" d="m0 0 4 1h-2v2l-8 2-3 2-4-1-8-3v-1z" fill="#E7EAED"/>
<path transform="translate(728,1296)" d="m0 0 1 2h9l-1 7h-8l-2-1z" fill="#13A8C7"/>
<path transform="translate(483,1371)" d="m0 0 12 7 6 2 7 1-1 2h-7l-11-4-7-5z" fill="#475189"/>
<path transform="translate(486,1419)" d="m0 0 11 5 5 1h14l-1 2-5 1h-11l-9-3-4-4z" fill="#475189"/>
<path transform="translate(756,1325)" d="m0 0 27 3 1 2-5 1-23-3z" fill="#DDEAF2"/>
<path transform="translate(549,1422)" d="m0 0 3 1 1 2-8 4-1 2h-2l-7-7z" fill="#E7EAED"/>
<path transform="translate(640,1338)" d="m0 0 5 2 8 9 3 7v10l-2-2-2-11-6-8z" fill="#B5BAC0"/>
<path transform="translate(1169,937)" d="m0 0 9 1 1 5-4 2-6-2z" fill="#F0F2F4"/>
<path transform="translate(603,1393)" d="m0 0h8l-1 3h-27v-2z" fill="#57639C"/>
<path transform="translate(372,1197)" d="m0 0h12l8 3v2l-5 1-9-4-12 2-1-2z" fill="#4D5890"/>
<path transform="translate(561,1313)" d="m0 0h7l3 5 6 1v1h-10l-6-1z" fill="#CBD5DE"/>
<path transform="translate(1162,1073)" d="m0 0 5 2 19 6 6 2v1l-10-1-17-6-3-2z" fill="#FBFCFC"/>
<path transform="translate(1176,836)" d="m0 0v3l-9 15-2 2 1-9 5-8z" fill="#7B4F41"/>
<path transform="translate(340,1364)" d="m0 0 9 3 11 5v3l-6-2-16-7z" fill="#545D92"/>
<path transform="translate(524,1418)" d="m0 0 12 3h12v2l-3 1h-12l-8-3z" fill="#454F88"/>
<path transform="translate(913,1203)" d="m0 0h2v8l-2 6-4-1 1-5z" fill="#D9E8EF"/>
<path transform="translate(1341,882)" d="m0 0 2 3v12l-1 8h-1l-2-7 1-15z" fill="#8A5D50"/>
<path transform="translate(654,1364)" d="m0 0h1l-1 7-7 8-5 4-5 3-3-1 12-8 6-8z" fill="#BCC3CB"/>
<path transform="translate(1170,954)" d="m0 0 9 2-6 7-3 2z" fill="#89594A"/>
<path transform="translate(889,1321)" d="m0 0 2 1-1 7-6 8-6 4v-3l7-6z" fill="#DCE9F1"/>
<path transform="translate(782,1288)" d="m0 0 14 1-1 3h-12l-2-1z" fill="#6871A5"/>
<path transform="translate(856,1297)" d="m0 0 14 1-1 3h-11l-3-1z" fill="#6870A4"/>
<path transform="translate(1273,1071)" d="m0 0m-2 1h2l-1 3-8 4-10 3-3-1 12-5z" fill="#FBFCFC"/>
<path transform="translate(900,1267)" d="m0 0 2 4v9h-2l-3 6-1-3 3-15z" fill="#D8E8EF"/>
<path transform="translate(910,1218)" d="m0 0h2v8l-2 6h-3l1-8z" fill="#E1EEF3"/>
<path transform="translate(909,1216)" d="m0 0 4 1-1 4v-3l-2 1-3 13h3l-1 4v-3l-4 3 1-10 2-9z" fill="#C8D9E2"/>
<path transform="translate(812,1409)" d="m0 0 3 3 5 12 1 5h-3l-6-18z" fill="#4B5690"/>
<path transform="translate(394,1330)" d="m0 0h1l-1 12-1 7h-2v-9l2-9z" fill="#444E87"/>
<path transform="translate(303,1289)" d="m0 0h1l-1 11-2 1-1 10h-1v-12l3-9z" fill="#5B6495"/>
<path transform="translate(410,1209)" d="m0 0 9 3 4 2-1 3-10-3z" fill="#49538C"/>
<path transform="translate(1299,1017)" d="m0 0h1v8l-3 7h-3l1-5z" fill="#895C4F"/>
<path transform="translate(797,1435)" d="m0 0h2l2 10v8l-2-3-2-9z" fill="#5C669E"/>
<path transform="translate(873,1398)" d="m0 0 3 3 6 15v2l-3 1-3-12z" fill="#6A719B"/>
<path transform="translate(375,1380)" d="m0 0 5 1 9 4v3l-6-2-8-4z" fill="#535D92"/>
<path transform="translate(907,1233)" d="m0 0h2v8l-2 5-2-3 1-9z" fill="#E0EDF3"/>
<path transform="translate(929,1114)" d="m0 0h2l1 11-1 5-3-1z" fill="#DDEAF1"/>
<path transform="translate(780,1442)" d="m0 0 2 1 2 12h-3l-1-3z" fill="#4D578F"/>
<path transform="translate(1285,1061)" d="m0 0v3l-5 5-6 5v-3l5-4 5-5z" fill="#F8FAFB"/>
<path transform="translate(322,1242)" d="m0 0 1 2-5 9-3 1 1-5 3-5z" fill="#545D90"/>
<path transform="translate(1336,825)" d="m0 0h1l1 12-2 4-2-11h2z" fill="#8D6559"/>
<path transform="translate(760,1448)" d="m0 0 3 3v8h-3z" fill="#4E578F"/>
<path transform="translate(443,1224)" d="m0 0 9 3 2 1-1 3-10-5z" fill="#525B91"/>
<path transform="translate(756,1325)" d="m0 0 10 1 1 3-11-1z" fill="#DBE9F1"/>
<path transform="translate(1025,1098)" d="m0 0 2 1-2 5-4 5h-2l2-5z" fill="#8BCBCF"/>
<path transform="translate(904,1248)" d="m0 0h1v11l-2 2-1-8z" fill="#E5EFF4"/>
</svg>
